<?xml version="1.0" encoding="utf-8"?>
<!-- Generator: Adobe Illustrator 27.5.0, SVG Export Plug-In . SVG Version: 6.00 Build 0)  -->
<svg version="1.1" id="Lager_1" xmlns="http://www.w3.org/2000/svg" xmlns:xlink="http://www.w3.org/1999/xlink" x="0px" y="0px"
	 viewBox="0 0 479.06 163.62" style="enable-background:new 0 0 479.06 163.62;" xml:space="preserve">
<style type="text/css">
	.st0{fill:#2958ec;}
</style>
<path class="st0" d="M22.45,130.97c-6.93-4.02-12.4-9.49-16.42-16.42C2.01,107.62,0,100.08,0,91.92c0-8.15,2.01-15.69,6.03-22.63
	c4.02-6.93,9.49-12.4,16.42-16.42c6.93-4.02,14.47-6.03,22.63-6.03c10.25,0,19.36,3.06,27.34,9.17c7.98,6.12,13.31,13.95,15.99,23.5
	H64.29c-1.98-3.26-4.63-5.82-7.95-7.69c-3.32-1.86-7.02-2.8-11.09-2.8c-6.41,0-11.77,2.18-16.07,6.55
	c-4.31,4.37-6.46,9.81-6.46,16.34c0,6.52,2.15,11.97,6.46,16.34c4.31,4.37,9.67,6.55,16.07,6.55c3.84,0,7.34-0.84,10.48-2.53
	c3.14-1.69,5.77-4.05,7.86-7.08h24.63c-2.8,9.32-8.15,16.95-16.07,22.89c-7.92,5.94-16.95,8.91-27.08,8.91
	C36.92,137,29.38,134.99,22.45,130.97z"/>
<path class="st0"  d="M119.68,130.97c-6.87-4.02-12.35-9.49-16.42-16.42c-4.08-6.93-6.11-14.47-6.11-22.63c0-8.15,2.04-15.69,6.11-22.63
	c4.08-6.93,9.55-12.4,16.42-16.42c6.87-4.02,14.38-6.03,22.54-6.03c8.15,0,15.66,2.01,22.54,6.03c6.87,4.02,12.32,9.49,16.33,16.42
	c4.02,6.93,6.03,14.47,6.03,22.63v43.68H164.4v-9.26c-1.28,2.91-4.08,5.42-8.39,7.51c-4.31,2.1-8.91,3.14-13.8,3.14
	C134.06,137,126.55,134.99,119.68,130.97z M158.29,108.26c4.19-4.37,6.29-9.81,6.29-16.34c0-6.52-2.1-11.97-6.29-16.34
	c-4.19-4.37-9.49-6.55-15.9-6.55c-6.41,0-11.77,2.18-16.07,6.55c-4.31,4.37-6.46,9.81-6.46,16.34c0,6.52,2.15,11.97,6.46,16.34
	c4.31,4.37,9.67,6.55,16.07,6.55C148.79,114.81,154.1,112.62,158.29,108.26z"/>
<path class="st0" d="M281.46,94.37c0,6.99,1.22,12,3.66,15.02c2.46,3.03,6.47,4.54,12.06,4.54v22.19c-11.77,0-21.12-3.43-28.04-10.3
	c-6.94-6.88-10.39-17.36-10.39-31.45V70.09h-21.84c-5.01,0-8.74,1.57-11.19,4.71c-2.44,3.15-3.65,8.1-3.65,14.85v45.95h-22.71V89.65
	c0-13.86,3.43-24.29,10.31-31.27c6.87-6.99,15.9-10.48,27.08-10.48h22.02V13.47h22.71v34.42h15.72v22.2h-15.72V94.37z"/>
<path class="st0" d="M403.06,89.65c0-13.86,3.43-24.28,10.31-31.27c6.87-6.99,15.9-10.48,27.08-10.48h1.05v22.19h-0.87
	c-5.01,0-8.73,1.57-11.18,4.72c-2.45,3.15-3.67,8.1-3.67,14.85v45.95h-22.71V89.65z"/>
<path class="st0" d="M455.91,35.05c-2.62-2.62-3.93-5.85-3.93-9.7c0-3.73,1.31-6.9,3.93-9.52c2.62-2.62,5.85-3.93,9.7-3.93
	c3.73,0,6.9,1.31,9.52,3.93c2.62,2.62,3.93,5.79,3.93,9.52c0,3.84-1.31,7.08-3.93,9.7c-2.62,2.62-5.79,3.93-9.52,3.93
	C461.76,38.98,458.53,37.67,455.91,35.05z M454.25,48.24h22.71v87.36h-22.71V48.24z"/>
<line class="st0" x1="258.75" y1="70.09" x2="258.75" y2="69.74"/>
<line class="st0" x1="281.46" y1="70.09" x2="281.46" y2="69.51"/>
<path class="st0" d="M303.22,91.8c0.05-21.63,15.35-40.42,36.37-44.16c28.9-5.14,51.13,15.3,53.69,39.59c2.78,26.38-17.96,49.67-44.49,49.77
	c-9.93,0.04-20.21-4.37-21.95-5.41c-0.54-0.32-2.03-1.22-2-2.35c0.04-1.2,1.77-2.05,2.34-2.33c1.25-0.63,12.99-7.03,19.01-13.92
	c3.54-4.05,6.65-8.46,9.91-12.75c0.83-1.09,1.41-1.16,2.13,0.05c0.85,1.44,1.74,2.87,2.65,4.27c0.02,0.04,0.08,0.13,0.18,0.21
	c0.2,0.15,0.46,0.16,0.66,0.14c0.15-0.08,0.33-0.21,0.41-0.42c0.05-0.13,0.05-0.24,0.05-0.27c0.13-3.04,0.24-6.09,0.32-9.13
	c0.21-7.87,0.42-15.74,0.61-23.6c0.03-1.19-0.09-1.86-0.48-2.08c-0.58-0.34-1.53,0.28-1.8,0.45c-1.88,1.2-11.88,6.78-25.8,14.49
	c-0.48,0.29-0.69,0.78-0.56,1.13c0.07,0.18,0.28,0.38,0.51,0.47c0.16,0.07,0.3,0.08,0.39,0.08c0.81,0.04,3.1,0.17,5.02,0.41
	c0.35,0.04,0.97,0.13,1.18,0.55c0.14,0.28,0.08,0.66-0.22,1.17c-4.76,8.12-10.06,15.81-18.19,20.99c-1.9,1.21-4.05,2.16-6.21,2.82
	c-4.66,1.42-8.4-0.24-10.74-4.59C303.62,102.5,303.31,97.16,303.22,91.8z"/>
<path class="st0" d="M331.95,137"/>
<path class="st0" d="M346.46,96.64"/>
<path class="st0" d="M336.51,85.33"/>
<path class="st0" d="M345.37,85.69"/>
</svg>
