<?xml version="1.0" encoding="utf-8"?>
<!-- Generator: Adobe Illustrator 27.5.0, SVG Export Plug-In . SVG Version: 6.00 Build 0)  -->
<svg version="1.1" id="Lager_1" xmlns="http://www.w3.org/2000/svg" xmlns:xlink="http://www.w3.org/1999/xlink" x="0px" y="0px"
	 viewBox="0 0 141.7 141.7" style="enable-background:new 0 0 141.7 141.7;" xml:space="preserve">
<style type="text/css">
	.st0{fill:#2958EC;}
</style>
<path class="st0" d="M0,70.7C0.1,36.7,24.1,7.2,57.1,1.4c45.4-8.1,80.2,24,84.3,62.1c4.4,41.4-28.2,78-69.8,78.1
	c-15.6,0.1-31.7-6.9-34.4-8.5c-0.8-0.5-3.2-1.9-3.1-3.7c0.1-1.9,2.8-3.2,3.7-3.7c2-1,20.4-11,29.8-21.8c5.6-6.4,10.4-13.3,15.6-20
	c1.3-1.7,2.2-1.8,3.3,0.1c1.3,2.3,2.7,4.5,4.2,6.7c0,0.1,0.1,0.2,0.3,0.3c0.3,0.2,0.7,0.3,1,0.2c0.2-0.1,0.5-0.3,0.6-0.7
	c0.1-0.2,0.1-0.4,0.1-0.4c0.2-4.8,0.4-9.6,0.5-14.3c0.3-12.4,0.7-24.7,1-37c0-1.9-0.1-2.9-0.8-3.3c-0.9-0.5-2.4,0.4-2.8,0.7
	c-3,1.9-18.6,10.6-40.5,22.7c-0.8,0.5-1.1,1.2-0.9,1.8c0.1,0.3,0.4,0.6,0.8,0.7c0.3,0.1,0.5,0.1,0.6,0.1c1.3,0.1,4.9,0.3,7.9,0.6
	c0.5,0.1,1.5,0.2,1.9,0.9c0.2,0.4,0.1,1-0.3,1.8c-7.5,12.7-15.8,24.8-28.5,32.9c-3,1.9-6.4,3.4-9.7,4.4c-7.3,2.2-13.2-0.4-16.9-7.2
	C0.6,87.5,0.1,79.1,0,70.7z"/>
<path d="M151.3,75.7"/>
<path d="M165.9,35.3"/>
<path d="M155.9,24"/>
<path d="M164.8,24.4"/>
</svg>
